<?xml version="1.0" encoding="UTF-8" ?>
<svg version="1.1" width="66" height="11" xmlns="http://www.w3.org/2000/svg" shape-rendering="crispEdges">
<rect x="16" y="0" width="1" height="9" fill="#000000" />
<rect x="34" y="0" width="1" height="9" fill="#000000" />
<rect x="17" y="1" width="1" height="9" fill="#C0C0C0" />
<rect x="35" y="1" width="1" height="9" fill="#C0C0C0" />
<rect x="3" y="2" width="1" height="1" fill="#000000" />
<rect x="4" y="2" width="1" height="8" fill="#C0C0C0" />
<rect x="43" y="2" width="1" height="6" fill="#000000" />
<rect x="44" y="2" width="1" height="1" fill="#C0C0C0" />
<rect x="3" y="3" width="1" height="1" fill="#C0C0C0" />
<rect x="7" y="3" width="3" height="1" fill="#000000" />
<rect x="10" y="3" width="1" height="1" fill="#C0C0C0" />
<rect x="13" y="3" width="3" height="1" fill="#000000" />
<rect x="19" y="3" width="3" height="1" fill="#000000" />
<rect x="22" y="3" width="1" height="1" fill="#C0C0C0" />
<rect x="24" y="3" width="4" height="1" fill="#000000" />
<rect x="28" y="3" width="1" height="1" fill="#C0C0C0" />
<rect x="31" y="3" width="3" height="1" fill="#000000" />
<rect x="37" y="3" width="3" height="1" fill="#000000" />
<rect x="40" y="3" width="1" height="1" fill="#C0C0C0" />
<rect x="42" y="3" width="1" height="1" fill="#000000" />
<rect x="44" y="3" width="2" height="1" fill="#000000" />
<rect x="46" y="3" width="1" height="2" fill="#C0C0C0" />
<rect x="49" y="3" width="3" height="1" fill="#000000" />
<rect x="52" y="3" width="1" height="1" fill="#C0C0C0" />
<rect x="55" y="3" width="3" height="1" fill="#000000" />
<rect x="58" y="3" width="1" height="1" fill="#C0C0C0" />
<rect x="60" y="3" width="4" height="1" fill="#000000" />
<rect x="64" y="3" width="1" height="1" fill="#C0C0C0" />
<rect x="3" y="4" width="1" height="5" fill="#000000" />
<rect x="7" y="4" width="3" height="1" fill="#C0C0C0" />
<rect x="10" y="4" width="1" height="5" fill="#000000" />
<rect x="11" y="4" width="1" height="6" fill="#C0C0C0" />
<rect x="12" y="4" width="1" height="4" fill="#000000" />
<rect x="13" y="4" width="3" height="1" fill="#C0C0C0" />
<rect x="18" y="4" width="1" height="4" fill="#000000" />
<rect x="19" y="4" width="3" height="1" fill="#C0C0C0" />
<rect x="22" y="4" width="1" height="3" fill="#000000" />
<rect x="23" y="4" width="1" height="6" fill="#C0C0C0" />
<rect x="24" y="4" width="1" height="5" fill="#000000" />
<rect x="25" y="4" width="3" height="1" fill="#C0C0C0" />
<rect x="28" y="4" width="1" height="5" fill="#000000" />
<rect x="29" y="4" width="1" height="6" fill="#C0C0C0" />
<rect x="30" y="4" width="1" height="4" fill="#000000" />
<rect x="31" y="4" width="3" height="1" fill="#C0C0C0" />
<rect x="36" y="4" width="1" height="4" fill="#000000" />
<rect x="37" y="4" width="3" height="1" fill="#C0C0C0" />
<rect x="40" y="4" width="1" height="4" fill="#000000" />
<rect x="41" y="4" width="2" height="1" fill="#C0C0C0" />
<rect x="44" y="4" width="2" height="1" fill="#C0C0C0" />
<rect x="48" y="4" width="1" height="4" fill="#000000" />
<rect x="49" y="4" width="3" height="1" fill="#C0C0C0" />
<rect x="52" y="4" width="1" height="1" fill="#000000" />
<rect x="53" y="4" width="1" height="2" fill="#C0C0C0" />
<rect x="54" y="4" width="1" height="4" fill="#000000" />
<rect x="55" y="4" width="3" height="1" fill="#C0C0C0" />
<rect x="58" y="4" width="1" height="4" fill="#000000" />
<rect x="59" y="4" width="1" height="5" fill="#C0C0C0" />
<rect x="60" y="4" width="1" height="5" fill="#000000" />
<rect x="61" y="4" width="1" height="6" fill="#C0C0C0" />
<rect x="62" y="4" width="1" height="5" fill="#000000" />
<rect x="63" y="4" width="1" height="6" fill="#C0C0C0" />
<rect x="64" y="4" width="1" height="5" fill="#000000" />
<rect x="65" y="4" width="1" height="6" fill="#C0C0C0" />
<rect x="7" y="5" width="3" height="1" fill="#000000" />
<rect x="13" y="5" width="1" height="3" fill="#C0C0C0" />
<rect x="19" y="5" width="1" height="1" fill="#C0C0C0" />
<rect x="25" y="5" width="1" height="5" fill="#C0C0C0" />
<rect x="31" y="5" width="1" height="3" fill="#C0C0C0" />
<rect x="37" y="5" width="1" height="3" fill="#C0C0C0" />
<rect x="41" y="5" width="1" height="4" fill="#C0C0C0" />
<rect x="44" y="5" width="1" height="3" fill="#C0C0C0" />
<rect x="49" y="5" width="1" height="3" fill="#C0C0C0" />
<rect x="52" y="5" width="1" height="1" fill="#C0C0C0" />
<rect x="55" y="5" width="1" height="3" fill="#C0C0C0" />
<rect x="6" y="6" width="1" height="2" fill="#000000" />
<rect x="7" y="6" width="3" height="1" fill="#C0C0C0" />
<rect x="19" y="6" width="3" height="1" fill="#000000" />
<rect x="7" y="7" width="1" height="1" fill="#C0C0C0" />
<rect x="19" y="7" width="4" height="1" fill="#C0C0C0" />
<rect x="52" y="7" width="1" height="1" fill="#000000" />
<rect x="53" y="7" width="1" height="2" fill="#C0C0C0" />
<rect x="0" y="8" width="1" height="1" fill="#000000" />
<rect x="6" y="8" width="1" height="1" fill="#C0C0C0" />
<rect x="7" y="8" width="3" height="1" fill="#000000" />
<rect x="12" y="8" width="1" height="1" fill="#C0C0C0" />
<rect x="13" y="8" width="3" height="1" fill="#000000" />
<rect x="18" y="8" width="1" height="1" fill="#C0C0C0" />
<rect x="19" y="8" width="4" height="1" fill="#000000" />
<rect x="30" y="8" width="1" height="1" fill="#C0C0C0" />
<rect x="31" y="8" width="3" height="1" fill="#000000" />
<rect x="36" y="8" width="1" height="1" fill="#C0C0C0" />
<rect x="37" y="8" width="3" height="1" fill="#000000" />
<rect x="40" y="8" width="1" height="2" fill="#C0C0C0" />
<rect x="43" y="8" width="1" height="1" fill="#C0C0C0" />
<rect x="44" y="8" width="2" height="1" fill="#000000" />
<rect x="46" y="8" width="1" height="2" fill="#C0C0C0" />
<rect x="48" y="8" width="1" height="1" fill="#C0C0C0" />
<rect x="49" y="8" width="3" height="1" fill="#000000" />
<rect x="52" y="8" width="1" height="2" fill="#C0C0C0" />
<rect x="54" y="8" width="1" height="1" fill="#C0C0C0" />
<rect x="55" y="8" width="3" height="1" fill="#000000" />
<rect x="58" y="8" width="1" height="2" fill="#C0C0C0" />
<rect x="0" y="9" width="1" height="1" fill="#C0C0C0" />
<rect x="1" y="9" width="2" height="1" fill="#000000" />
<rect x="3" y="9" width="1" height="2" fill="#C0C0C0" />
<rect x="7" y="9" width="4" height="1" fill="#C0C0C0" />
<rect x="13" y="9" width="4" height="1" fill="#C0C0C0" />
<rect x="19" y="9" width="4" height="1" fill="#C0C0C0" />
<rect x="24" y="9" width="1" height="1" fill="#C0C0C0" />
<rect x="28" y="9" width="1" height="1" fill="#C0C0C0" />
<rect x="31" y="9" width="4" height="1" fill="#C0C0C0" />
<rect x="37" y="9" width="3" height="1" fill="#C0C0C0" />
<rect x="44" y="9" width="2" height="1" fill="#C0C0C0" />
<rect x="49" y="9" width="3" height="1" fill="#C0C0C0" />
<rect x="55" y="9" width="3" height="1" fill="#C0C0C0" />
<rect x="60" y="9" width="1" height="1" fill="#C0C0C0" />
<rect x="62" y="9" width="1" height="1" fill="#C0C0C0" />
<rect x="64" y="9" width="1" height="1" fill="#C0C0C0" />
<rect x="1" y="10" width="2" height="1" fill="#C0C0C0" />
</svg>